<mxfile host="app.diagrams.net" agent="Mozilla/5.0 (Windows NT 10.0; Win64; x64) AppleWebKit/537.36 (KHTML, like Gecko) Chrome/138.0.0.0 Safari/537.36" version="28.0.9">
  <diagram name="Construction Project Management ERD" id="mmF6jvlTU5IWWPa_1jX6">
    <mxGraphModel dx="1426" dy="751" grid="1" gridSize="10" guides="1" tooltips="1" connect="1" arrows="1" fold="1" page="1" pageScale="1" pageWidth="827" pageHeight="1169" math="0" shadow="0">
      <root>
        <mxCell id="0" />
        <mxCell id="1" parent="0" />
        <mxCell id="P2oW2zQtoeX0is6x056b-1" value="&lt;b&gt;clients&lt;/b&gt;&lt;div&gt;&lt;br&gt;PK client_id : SERIAL&lt;br&gt;company_name : VARCHAR(255) NOT NULL&lt;br&gt;contact_name : VARCHAR(255)&lt;br&gt;email : VARCHAR(255) UNIQUE&lt;br&gt;phone : VARCHAR(50)&lt;br&gt;address : TEXT&lt;/div&gt;" style="rounded=1;whiteSpace=wrap;html=1;fillColor=#dae8fc;strokeColor=#6c8ebf;" vertex="1" parent="1">
          <mxGeometry x="30" y="20" width="250" height="160" as="geometry" />
        </mxCell>
        <mxCell id="P2oW2zQtoeX0is6x056b-2" value="&lt;b&gt;roles&lt;/b&gt;&lt;div&gt;&lt;b&gt;&lt;br&gt;&lt;/b&gt;PK role_id : SERIAL&lt;br&gt;role_name : VARCHAR(100) NOT NULL UNIQUE&lt;br&gt;description : TEXT&lt;/div&gt;" style="rounded=1;whiteSpace=wrap;html=1;fillColor=#f8cecc;strokeColor=#b85450;" vertex="1" parent="1">
          <mxGeometry x="840" y="60" width="280" height="100" as="geometry" />
        </mxCell>
        <mxCell id="P2oW2zQtoeX0is6x056b-3" value="&lt;b&gt;employees&lt;/b&gt;&lt;div&gt;&lt;b&gt;&lt;br&gt;&lt;/b&gt;PK employee_id : SERIAL&lt;br&gt;FK role_id : INT NOT NULL&lt;br&gt;first_name : VARCHAR(100) NOT NULL&lt;br&gt;last_name : VARCHAR(100) NOT NULL&lt;br&gt;email : VARCHAR(255) UNIQUE NOT NULL&lt;br&gt;phone : VARCHAR(50)&lt;br&gt;hire_date : DATE NOT NULL&lt;br&gt;FK manager_id : INT&lt;/div&gt;" style="rounded=1;whiteSpace=wrap;html=1;fillColor=#d5e8d4;strokeColor=#82b366;" vertex="1" parent="1">
          <mxGeometry x="400" y="20" width="280" height="190" as="geometry" />
        </mxCell>
        <mxCell id="P2oW2zQtoeX0is6x056b-4" value="&lt;b&gt;projects&lt;/b&gt;&lt;div&gt;&lt;b&gt;&lt;br&gt;&lt;/b&gt;PK project_id : SERIAL&lt;br&gt;FK client_id : INT NOT NULL&lt;br&gt;name : VARCHAR(255) NOT NULL&lt;br&gt;description : TEXT&lt;br&gt;start_date : DATE NOT NULL&lt;br&gt;end_date : DATE&lt;br&gt;budget : NUMERIC(12,2) DEFAULT 0&lt;br&gt;status : VARCHAR(20) DEFAULT &#39;planned&#39;&lt;/div&gt;" style="rounded=1;whiteSpace=wrap;html=1;fillColor=#fff2cc;strokeColor=#d6b656;" vertex="1" parent="1">
          <mxGeometry x="40" y="320" width="240" height="200" as="geometry" />
        </mxCell>
        <mxCell id="P2oW2zQtoeX0is6x056b-5" value="&lt;b&gt;tasks&lt;/b&gt;&lt;div&gt;&lt;br&gt;PK task_id : SERIAL&lt;br&gt;FK project_id : INT NOT NULL&lt;br&gt;title : VARCHAR(255) NOT NULL&lt;br&gt;description : TEXT&lt;br&gt;status : VARCHAR(20) DEFAULT &#39;todo&#39;&lt;br&gt;priority : VARCHAR(10) DEFAULT &#39;medium&#39;&lt;br&gt;estimated_hours : NUMERIC(7,2) DEFAULT 0&lt;br&gt;actual_hours : NUMERIC(7,2) DEFAULT 0&lt;br&gt;due_date : DATE&lt;br&gt;FK parent_task_id : INT&lt;/div&gt;" style="rounded=1;whiteSpace=wrap;html=1;fillColor=#e1d5e7;strokeColor=#9673a6;" vertex="1" parent="1">
          <mxGeometry x="400" y="480" width="280" height="240" as="geometry" />
        </mxCell>
        <mxCell id="P2oW2zQtoeX0is6x056b-6" value="&lt;b&gt;project_assignments&lt;/b&gt;&lt;div&gt;&lt;b&gt;&lt;br&gt;&lt;/b&gt;PK (project_id, employee_id)&lt;br&gt;FK project_id : INT NOT NULL&lt;br&gt;FK employee_id : INT NOT NULL&lt;br&gt;assigned_at : TIMESTAMP DEFAULT now()&lt;br&gt;role_on_project : VARCHAR(100)&lt;/div&gt;" style="rounded=1;whiteSpace=wrap;html=1;fillColor=#f5f5f5;strokeColor=#999999;" vertex="1" parent="1">
          <mxGeometry x="400" y="280" width="280" height="160" as="geometry" />
        </mxCell>
        <mxCell id="P2oW2zQtoeX0is6x056b-7" value="&lt;b&gt;task_assignments&lt;/b&gt;&lt;div&gt;&lt;br&gt;PK (task_id, employee_id)&lt;br&gt;FK task_id : INT NOT NULL&lt;br&gt;FK employee_id : INT NOT NULL&lt;br&gt;assigned_at : TIMESTAMP DEFAULT now()&lt;br&gt;allocation_percent : SMALLINT CHECK (0..100)&lt;/div&gt;" style="rounded=1;whiteSpace=wrap;html=1;fillColor=#ffe6cc;strokeColor=#d98c25;" vertex="1" parent="1">
          <mxGeometry x="840" y="240" width="280" height="160" as="geometry" />
        </mxCell>
        <mxCell id="P2oW2zQtoeX0is6x056b-8" style="endArrow=block;endFill=1;" edge="1" parent="1" source="P2oW2zQtoeX0is6x056b-4" target="P2oW2zQtoeX0is6x056b-1">
          <mxGeometry relative="1" as="geometry" />
        </mxCell>
        <mxCell id="P2oW2zQtoeX0is6x056b-9" style="endArrow=block;endFill=1;" edge="1" parent="1" source="P2oW2zQtoeX0is6x056b-3" target="P2oW2zQtoeX0is6x056b-2">
          <mxGeometry relative="1" as="geometry" />
        </mxCell>
        <mxCell id="P2oW2zQtoeX0is6x056b-10" style="endArrow=block;endFill=1;dashed=1;" edge="1" parent="1" source="P2oW2zQtoeX0is6x056b-3" target="P2oW2zQtoeX0is6x056b-3">
          <mxGeometry relative="1" as="geometry" />
        </mxCell>
        <mxCell id="P2oW2zQtoeX0is6x056b-11" style="endArrow=block;endFill=1;" edge="1" parent="1" source="P2oW2zQtoeX0is6x056b-5" target="P2oW2zQtoeX0is6x056b-4">
          <mxGeometry relative="1" as="geometry" />
        </mxCell>
        <mxCell id="P2oW2zQtoeX0is6x056b-12" style="endArrow=block;endFill=1;dashed=1;" edge="1" parent="1" source="P2oW2zQtoeX0is6x056b-5" target="P2oW2zQtoeX0is6x056b-5">
          <mxGeometry relative="1" as="geometry">
            <Array as="points">
              <mxPoint x="660" y="620" />
            </Array>
          </mxGeometry>
        </mxCell>
        <mxCell id="P2oW2zQtoeX0is6x056b-13" style="endArrow=block;endFill=1;" edge="1" parent="1" source="P2oW2zQtoeX0is6x056b-6" target="P2oW2zQtoeX0is6x056b-4">
          <mxGeometry relative="1" as="geometry" />
        </mxCell>
        <mxCell id="P2oW2zQtoeX0is6x056b-14" style="endArrow=block;endFill=1;" edge="1" parent="1" source="P2oW2zQtoeX0is6x056b-6" target="P2oW2zQtoeX0is6x056b-3">
          <mxGeometry relative="1" as="geometry" />
        </mxCell>
        <mxCell id="P2oW2zQtoeX0is6x056b-15" style="endArrow=block;endFill=1;" edge="1" parent="1" source="P2oW2zQtoeX0is6x056b-7" target="P2oW2zQtoeX0is6x056b-5">
          <mxGeometry relative="1" as="geometry" />
        </mxCell>
        <mxCell id="P2oW2zQtoeX0is6x056b-16" style="endArrow=block;endFill=1;" edge="1" parent="1" source="P2oW2zQtoeX0is6x056b-7" target="P2oW2zQtoeX0is6x056b-3">
          <mxGeometry relative="1" as="geometry" />
        </mxCell>
      </root>
    </mxGraphModel>
  </diagram>
</mxfile>
